# This file uses centimeters as units for non-parametric coordinates.

mtllib MurFenetre.mtl
g default
v -8.789811 -12.093634 45.904022
v -8.789811 -12.093634 -0.700408
v -8.789811 -12.093634 -10.463961
v -8.789811 -12.093634 -45.687363
v -8.789811 5.560268 45.904022
v -8.789811 5.560268 -0.700408
v -8.789811 5.560268 -10.463961
v -8.789811 5.560268 -45.687363
v -8.789811 14.868834 45.904022
v -8.789811 14.868834 -0.700408
v -8.789811 14.868834 -10.463961
v -8.789811 14.868834 -45.687363
v -8.789811 36.190408 45.904022
v -8.789811 36.190408 -0.700408
v -8.789811 36.190408 -10.463961
v -8.789811 36.190408 -45.687363
vt 0.115985 0.447938
vt 0.115985 0.369846
vt 0.500000 0.369846
vt 0.500000 0.447938
vt 0.653606 0.369846
vt 0.653606 0.447938
vt 0.884015 0.369846
vt 0.884015 0.447938
vt 0.115985 0.578093
vt 0.500000 0.578093
vt 0.653606 0.578093
vt 0.884015 0.578093
vt 0.500000 0.630154
vt 0.115985 0.630154
vt 0.653606 0.630154
vt 0.884015 0.630154
vn 1.000000 0.000000 0.000000
vn 1.000000 0.000000 0.000000
vn 1.000000 0.000000 0.000000
vn 1.000000 0.000000 0.000000
vn 1.000000 0.000000 0.000000
vn 1.000000 0.000000 0.000000
vn 1.000000 0.000000 0.000000
vn 1.000000 0.000000 0.000000
vn 1.000000 0.000000 0.000000
vn 1.000000 0.000000 0.000000
vn 1.000000 0.000000 0.000000
vn 1.000000 0.000000 0.000000
vn 1.000000 0.000000 0.000000
vn 1.000000 0.000000 0.000000
vn 1.000000 0.000000 0.000000
vn 1.000000 0.000000 0.000000
vn 1.000000 0.000000 0.000000
vn 1.000000 0.000000 0.000000
vn 1.000000 0.000000 0.000000
vn 1.000000 0.000000 0.000000
vn 1.000000 0.000000 0.000000
vn 1.000000 0.000000 0.000000
vn 1.000000 0.000000 0.000000
vn 1.000000 0.000000 0.000000
vn 1.000000 0.000000 0.000000
vn 1.000000 0.000000 0.000000
vn 1.000000 0.000000 0.000000
vn 1.000000 0.000000 0.000000
vn 1.000000 0.000000 0.000000
vn 1.000000 0.000000 0.000000
vn 1.000000 0.000000 0.000000
vn 1.000000 0.000000 0.000000
s off
g MurFenetre:MurWindow
usemtl initialShadingGroup
f 5/1/1 1/2/2 2/3/3 6/4/4
f 6/4/5 2/3/6 3/5/7 7/6/8
f 7/6/9 3/5/10 4/7/11 8/8/12
f 9/9/13 5/1/14 6/4/15 10/10/16
f 11/11/17 7/6/18 8/8/19 12/12/20
f 14/13/21 13/14/22 9/9/23 10/10/24
f 15/15/25 14/13/26 10/10/27 11/11/28
f 16/16/29 15/15/30 11/11/31 12/12/32
